<mxfile host="app.diagrams.net" modified="2023-10-18T08:12:56.650Z" agent="Mozilla/5.0 (Linux; arm_64; Android 13; SM-A127F) AppleWebKit/537.36 (KHTML, like Gecko) Chrome/116.0.5845.83 YaBrowser/23.9.5.83.00 SA/3 Mobile Safari/537.36" etag="TUVWryhd3kuCGyVAbZwG" version="22.0.4" type="github">
  <diagram name="Страница — 1" id="qPGFVWt4HbvcTn51peIZ">
    <mxGraphModel dx="350" dy="551" grid="0" gridSize="10" guides="1" tooltips="1" connect="1" arrows="1" fold="1" page="0" pageScale="1" pageWidth="827" pageHeight="1169" math="0" shadow="0">
      <root>
        <mxCell id="0" />
        <mxCell id="1" parent="0" />
        <mxCell id="H6syJrmVau65jsZnoK14-1" value="Text" style="text;strokeColor=none;align=center;fillColor=none;html=1;verticalAlign=middle;whiteSpace=wrap;rounded=0;fontSize=16;" vertex="1" parent="1">
          <mxGeometry x="180" y="257" width="60" height="30" as="geometry" />
        </mxCell>
      </root>
    </mxGraphModel>
  </diagram>
</mxfile>
